<mxfile host="Electron" modified="2025-04-03T14:22:07.469Z" agent="Mozilla/5.0 (Windows NT 10.0; Win64; x64) AppleWebKit/537.36 (KHTML, like Gecko) draw.io/21.5.0 Chrome/112.0.5615.204 Electron/24.5.1 Safari/537.36" etag="oN3YvnBcL5MLnThOLqQR" version="21.5.0" type="device">
  <diagram name="第 1 页" id="nJRzv5rlB3VEnub_vDUY">
    <mxGraphModel dx="1416" dy="818" grid="1" gridSize="10" guides="1" tooltips="1" connect="1" arrows="1" fold="1" page="1" pageScale="1" pageWidth="827" pageHeight="1169" math="0" shadow="0">
      <root>
        <mxCell id="0" />
        <mxCell id="1" parent="0" />
        <mxCell id="L7PPIbatm0o-3SstzBcX-66" value="&lt;font style=&quot;font-size: 16px;&quot;&gt;a3&lt;/font&gt;" style="rounded=0;whiteSpace=wrap;html=1;fillColor=#ffe6cc;strokeColor=#d79b00;" parent="1" vertex="1">
          <mxGeometry x="161" y="570" width="80" height="30" as="geometry" />
        </mxCell>
        <mxCell id="L7PPIbatm0o-3SstzBcX-67" value="a2" style="rounded=0;whiteSpace=wrap;html=1;" parent="1" vertex="1">
          <mxGeometry x="241" y="570" width="80" height="30" as="geometry" />
        </mxCell>
        <mxCell id="L7PPIbatm0o-3SstzBcX-68" value="&lt;font style=&quot;font-size: 16px;&quot;&gt;a1&lt;/font&gt;" style="rounded=0;whiteSpace=wrap;html=1;fillColor=#FFB366;" parent="1" vertex="1">
          <mxGeometry x="321" y="570" width="80" height="30" as="geometry" />
        </mxCell>
        <mxCell id="L7PPIbatm0o-3SstzBcX-69" value="&lt;font style=&quot;font-size: 16px;&quot;&gt;a0&lt;/font&gt;" style="rounded=0;whiteSpace=wrap;html=1;fillColor=#ffe6cc;strokeColor=#d79b00;" parent="1" vertex="1">
          <mxGeometry x="401" y="570" width="80" height="30" as="geometry" />
        </mxCell>
        <mxCell id="L7PPIbatm0o-3SstzBcX-70" value="&lt;font style=&quot;font-size: 16px;&quot;&gt;a7&lt;/font&gt;" style="rounded=0;whiteSpace=wrap;html=1;fillColor=#ffe6cc;strokeColor=#d79b00;" parent="1" vertex="1">
          <mxGeometry x="161" y="630" width="80" height="30" as="geometry" />
        </mxCell>
        <mxCell id="L7PPIbatm0o-3SstzBcX-71" value="&lt;font style=&quot;font-size: 16px;&quot;&gt;a6&lt;/font&gt;" style="rounded=0;whiteSpace=wrap;html=1;fillColor=#ffe6cc;strokeColor=#d79b00;" parent="1" vertex="1">
          <mxGeometry x="241" y="630" width="80" height="30" as="geometry" />
        </mxCell>
        <mxCell id="L7PPIbatm0o-3SstzBcX-72" value="&lt;font style=&quot;font-size: 16px;&quot;&gt;a5&lt;/font&gt;" style="rounded=0;whiteSpace=wrap;html=1;fillColor=#ffe6cc;strokeColor=#d79b00;" parent="1" vertex="1">
          <mxGeometry x="321" y="630" width="80" height="30" as="geometry" />
        </mxCell>
        <mxCell id="L7PPIbatm0o-3SstzBcX-73" value="&lt;font style=&quot;font-size: 16px;&quot;&gt;a4&lt;/font&gt;" style="rounded=0;whiteSpace=wrap;html=1;fillColor=#ffe6cc;strokeColor=#d79b00;" parent="1" vertex="1">
          <mxGeometry x="401" y="630" width="80" height="30" as="geometry" />
        </mxCell>
        <mxCell id="L7PPIbatm0o-3SstzBcX-74" value="&lt;font style=&quot;font-size: 16px;&quot;&gt;a3&lt;/font&gt;" style="rounded=0;whiteSpace=wrap;html=1;" parent="1" vertex="1">
          <mxGeometry x="241" y="570" width="80" height="30" as="geometry" />
        </mxCell>
        <mxCell id="L7PPIbatm0o-3SstzBcX-75" value="&lt;font style=&quot;font-size: 16px;&quot;&gt;a2&lt;/font&gt;" style="rounded=0;whiteSpace=wrap;html=1;fillColor=#FFB366;" parent="1" vertex="1">
          <mxGeometry x="241" y="570" width="80" height="30" as="geometry" />
        </mxCell>
        <mxCell id="L7PPIbatm0o-3SstzBcX-77" value="LMUL = 8&lt;br&gt;SEW = 32" style="text;strokeColor=none;align=left;fillColor=none;html=1;verticalAlign=middle;whiteSpace=wrap;rounded=0;" parent="1" vertex="1">
          <mxGeometry x="292" y="530" width="60" height="30" as="geometry" />
        </mxCell>
        <mxCell id="L7PPIbatm0o-3SstzBcX-79" value="" style="shape=curlyBracket;whiteSpace=wrap;html=1;rounded=1;labelPosition=left;verticalLabelPosition=middle;align=right;verticalAlign=middle;rotation=90;size=0.5;" parent="1" vertex="1">
          <mxGeometry x="310.16" y="350.15999999999997" width="22.63" height="324" as="geometry" />
        </mxCell>
        <mxCell id="L7PPIbatm0o-3SstzBcX-80" value="&lt;font style=&quot;font-size: 16px;&quot;&gt;VLEN =&amp;nbsp; &lt;font style=&quot;font-size: 16px;&quot; color=&quot;#ff0000&quot;&gt;128 &lt;/font&gt;bits&lt;/font&gt;" style="text;strokeColor=none;align=center;fillColor=none;html=1;verticalAlign=middle;whiteSpace=wrap;rounded=0;" parent="1" vertex="1">
          <mxGeometry x="262.32" y="461" width="130" height="30" as="geometry" />
        </mxCell>
        <mxCell id="L7PPIbatm0o-3SstzBcX-81" value="&lt;font style=&quot;font-size: 16px;&quot;&gt;a2&lt;/font&gt;" style="rounded=0;whiteSpace=wrap;html=1;fillColor=#ffe6cc;strokeColor=#d79b00;" parent="1" vertex="1">
          <mxGeometry x="241" y="570" width="80" height="30" as="geometry" />
        </mxCell>
        <mxCell id="L7PPIbatm0o-3SstzBcX-82" value="&lt;font style=&quot;font-size: 16px;&quot;&gt;a1&lt;/font&gt;" style="rounded=0;whiteSpace=wrap;html=1;fillColor=#ffe6cc;strokeColor=#d79b00;" parent="1" vertex="1">
          <mxGeometry x="321" y="570" width="80" height="30" as="geometry" />
        </mxCell>
        <mxCell id="L7PPIbatm0o-3SstzBcX-85" value="&lt;font style=&quot;font-size: 16px;&quot;&gt;a11&lt;/font&gt;" style="rounded=0;whiteSpace=wrap;html=1;fillColor=#ffe6cc;strokeColor=#d79b00;" parent="1" vertex="1">
          <mxGeometry x="161" y="690" width="80" height="30" as="geometry" />
        </mxCell>
        <mxCell id="L7PPIbatm0o-3SstzBcX-86" value="&lt;span style=&quot;font-size: 16px;&quot;&gt;a10&lt;/span&gt;" style="rounded=0;whiteSpace=wrap;html=1;fillColor=#d5e8d4;strokeColor=#82b366;" parent="1" vertex="1">
          <mxGeometry x="241.5" y="690" width="80" height="30" as="geometry" />
        </mxCell>
        <mxCell id="L7PPIbatm0o-3SstzBcX-87" value="&lt;font style=&quot;font-size: 16px;&quot;&gt;a9&lt;/font&gt;" style="rounded=0;whiteSpace=wrap;html=1;fillColor=#ffe6cc;strokeColor=#d79b00;" parent="1" vertex="1">
          <mxGeometry x="321" y="690" width="80" height="30" as="geometry" />
        </mxCell>
        <mxCell id="L7PPIbatm0o-3SstzBcX-88" value="&lt;span style=&quot;font-size: 16px;&quot;&gt;a8&lt;/span&gt;" style="rounded=0;whiteSpace=wrap;html=1;fillColor=#d5e8d4;strokeColor=#82b366;" parent="1" vertex="1">
          <mxGeometry x="402" y="690" width="80" height="30" as="geometry" />
        </mxCell>
        <mxCell id="L7PPIbatm0o-3SstzBcX-90" value="&lt;font style=&quot;font-size: 16px;&quot;&gt;a15&lt;/font&gt;" style="rounded=0;whiteSpace=wrap;html=1;fillColor=#ffe6cc;strokeColor=#d79b00;" parent="1" vertex="1">
          <mxGeometry x="161" y="750" width="80" height="30" as="geometry" />
        </mxCell>
        <mxCell id="L7PPIbatm0o-3SstzBcX-91" value="&lt;font style=&quot;font-size: 16px;&quot;&gt;a14&lt;/font&gt;" style="rounded=0;whiteSpace=wrap;html=1;fillColor=#ffe6cc;strokeColor=#d79b00;" parent="1" vertex="1">
          <mxGeometry x="241" y="750" width="80" height="30" as="geometry" />
        </mxCell>
        <mxCell id="L7PPIbatm0o-3SstzBcX-92" value="&lt;font style=&quot;font-size: 16px;&quot;&gt;a13&lt;/font&gt;" style="rounded=0;whiteSpace=wrap;html=1;fillColor=#ffe6cc;strokeColor=#d79b00;" parent="1" vertex="1">
          <mxGeometry x="321" y="750" width="80" height="30" as="geometry" />
        </mxCell>
        <mxCell id="L7PPIbatm0o-3SstzBcX-93" value="&lt;font style=&quot;font-size: 16px;&quot;&gt;a12&lt;/font&gt;" style="rounded=0;whiteSpace=wrap;html=1;fillColor=#ffe6cc;strokeColor=#d79b00;" parent="1" vertex="1">
          <mxGeometry x="401" y="750" width="80" height="30" as="geometry" />
        </mxCell>
        <mxCell id="L7PPIbatm0o-3SstzBcX-95" value="&lt;font style=&quot;font-size: 16px;&quot;&gt;a19&lt;/font&gt;" style="rounded=0;whiteSpace=wrap;html=1;fillColor=#ffe6cc;strokeColor=#d79b00;" parent="1" vertex="1">
          <mxGeometry x="161" y="810" width="80" height="30" as="geometry" />
        </mxCell>
        <mxCell id="L7PPIbatm0o-3SstzBcX-96" value="&lt;font style=&quot;font-size: 16px;&quot;&gt;a18&lt;/font&gt;" style="rounded=0;whiteSpace=wrap;html=1;fillColor=#ffe6cc;strokeColor=#d79b00;" parent="1" vertex="1">
          <mxGeometry x="241" y="810" width="80" height="30" as="geometry" />
        </mxCell>
        <mxCell id="L7PPIbatm0o-3SstzBcX-97" value="&lt;font style=&quot;font-size: 16px;&quot;&gt;a17&lt;/font&gt;" style="rounded=0;whiteSpace=wrap;html=1;fillColor=#ffe6cc;strokeColor=#d79b00;" parent="1" vertex="1">
          <mxGeometry x="321" y="810" width="80" height="30" as="geometry" />
        </mxCell>
        <mxCell id="L7PPIbatm0o-3SstzBcX-98" value="&lt;font style=&quot;font-size: 16px;&quot;&gt;a16&lt;/font&gt;" style="rounded=0;whiteSpace=wrap;html=1;fillColor=#ffe6cc;strokeColor=#d79b00;" parent="1" vertex="1">
          <mxGeometry x="401" y="810" width="80" height="30" as="geometry" />
        </mxCell>
        <mxCell id="L7PPIbatm0o-3SstzBcX-100" value="&lt;font style=&quot;font-size: 16px;&quot;&gt;a23&lt;/font&gt;" style="rounded=0;whiteSpace=wrap;html=1;fillColor=#ffe6cc;strokeColor=#d79b00;" parent="1" vertex="1">
          <mxGeometry x="161" y="870" width="80" height="30" as="geometry" />
        </mxCell>
        <mxCell id="L7PPIbatm0o-3SstzBcX-101" value="&lt;font style=&quot;font-size: 16px;&quot;&gt;a22&lt;/font&gt;" style="rounded=0;whiteSpace=wrap;html=1;fillColor=#ffe6cc;strokeColor=#d79b00;" parent="1" vertex="1">
          <mxGeometry x="241" y="870" width="80" height="30" as="geometry" />
        </mxCell>
        <mxCell id="L7PPIbatm0o-3SstzBcX-102" value="&lt;font style=&quot;font-size: 16px;&quot;&gt;a21&lt;/font&gt;" style="rounded=0;whiteSpace=wrap;html=1;fillColor=#ffe6cc;strokeColor=#d79b00;" parent="1" vertex="1">
          <mxGeometry x="321" y="870" width="80" height="30" as="geometry" />
        </mxCell>
        <mxCell id="L7PPIbatm0o-3SstzBcX-103" value="&lt;span style=&quot;font-size: 16px;&quot;&gt;a20&lt;/span&gt;" style="rounded=0;whiteSpace=wrap;html=1;fillColor=#ffe6cc;strokeColor=#d79b00;" parent="1" vertex="1">
          <mxGeometry x="401" y="870" width="80" height="30" as="geometry" />
        </mxCell>
        <mxCell id="L7PPIbatm0o-3SstzBcX-105" value="&lt;font style=&quot;font-size: 16px;&quot;&gt;a27&lt;/font&gt;" style="rounded=0;whiteSpace=wrap;html=1;fillColor=#ffe6cc;strokeColor=#d79b00;" parent="1" vertex="1">
          <mxGeometry x="161" y="930" width="80" height="30" as="geometry" />
        </mxCell>
        <mxCell id="L7PPIbatm0o-3SstzBcX-106" value="&lt;font style=&quot;font-size: 16px;&quot;&gt;a26&lt;/font&gt;" style="rounded=0;whiteSpace=wrap;html=1;fillColor=#ffe6cc;strokeColor=#d79b00;" parent="1" vertex="1">
          <mxGeometry x="241" y="930" width="80" height="30" as="geometry" />
        </mxCell>
        <mxCell id="L7PPIbatm0o-3SstzBcX-107" value="&lt;font style=&quot;font-size: 16px;&quot;&gt;a25&lt;/font&gt;" style="rounded=0;whiteSpace=wrap;html=1;fillColor=#ffe6cc;strokeColor=#d79b00;" parent="1" vertex="1">
          <mxGeometry x="321" y="930" width="80" height="30" as="geometry" />
        </mxCell>
        <mxCell id="L7PPIbatm0o-3SstzBcX-108" value="&lt;span style=&quot;font-size: 16px;&quot;&gt;a24&lt;/span&gt;" style="rounded=0;whiteSpace=wrap;html=1;fillColor=#ffe6cc;strokeColor=#d79b00;" parent="1" vertex="1">
          <mxGeometry x="401" y="930" width="80" height="30" as="geometry" />
        </mxCell>
        <mxCell id="L7PPIbatm0o-3SstzBcX-110" value="&lt;font style=&quot;font-size: 16px;&quot;&gt;a31&lt;/font&gt;" style="rounded=0;whiteSpace=wrap;html=1;fillColor=#ffe6cc;strokeColor=#d79b00;" parent="1" vertex="1">
          <mxGeometry x="161" y="990" width="80" height="30" as="geometry" />
        </mxCell>
        <mxCell id="L7PPIbatm0o-3SstzBcX-111" value="&lt;font style=&quot;font-size: 16px;&quot;&gt;a30&lt;/font&gt;" style="rounded=0;whiteSpace=wrap;html=1;fillColor=#ffe6cc;strokeColor=#d79b00;" parent="1" vertex="1">
          <mxGeometry x="241" y="990" width="80" height="30" as="geometry" />
        </mxCell>
        <mxCell id="L7PPIbatm0o-3SstzBcX-112" value="&lt;font style=&quot;font-size: 16px;&quot;&gt;a29&lt;/font&gt;" style="rounded=0;whiteSpace=wrap;html=1;fillColor=#ffe6cc;strokeColor=#d79b00;" parent="1" vertex="1">
          <mxGeometry x="321" y="990" width="80" height="30" as="geometry" />
        </mxCell>
        <mxCell id="L7PPIbatm0o-3SstzBcX-113" value="&lt;font style=&quot;font-size: 16px;&quot;&gt;a28&lt;/font&gt;" style="rounded=0;whiteSpace=wrap;html=1;fillColor=#ffe6cc;strokeColor=#d79b00;" parent="1" vertex="1">
          <mxGeometry x="401" y="990" width="80" height="30" as="geometry" />
        </mxCell>
        <mxCell id="tb1awdMNRKqUdHzma3g3-1" value="&lt;font style=&quot;font-size: 16px;&quot;&gt;a3&lt;/font&gt;" style="rounded=0;whiteSpace=wrap;html=1;fillColor=#ffe6cc;strokeColor=#d79b00;" parent="1" vertex="1">
          <mxGeometry x="1002" y="372" width="30" height="30" as="geometry" />
        </mxCell>
        <mxCell id="tb1awdMNRKqUdHzma3g3-2" value="&lt;font style=&quot;font-size: 16px;&quot;&gt;a7&lt;/font&gt;" style="rounded=0;whiteSpace=wrap;html=1;fillColor=#ffe6cc;strokeColor=#d79b00;" parent="1" vertex="1">
          <mxGeometry x="882" y="372" width="30" height="30" as="geometry" />
        </mxCell>
        <mxCell id="tb1awdMNRKqUdHzma3g3-3" value="&lt;font style=&quot;font-size: 16px;&quot;&gt;a6&lt;/font&gt;" style="rounded=0;whiteSpace=wrap;html=1;fillColor=#ffe6cc;strokeColor=#d79b00;" parent="1" vertex="1">
          <mxGeometry x="912" y="372" width="30" height="30" as="geometry" />
        </mxCell>
        <mxCell id="tb1awdMNRKqUdHzma3g3-4" value="&lt;font style=&quot;font-size: 16px;&quot;&gt;a5&lt;/font&gt;" style="rounded=0;whiteSpace=wrap;html=1;fillColor=#ffe6cc;strokeColor=#d79b00;" parent="1" vertex="1">
          <mxGeometry x="942" y="372" width="30" height="30" as="geometry" />
        </mxCell>
        <mxCell id="tb1awdMNRKqUdHzma3g3-5" value="&lt;font color=&quot;#ff0000&quot; style=&quot;font-size: 16px;&quot;&gt;参数：&lt;/font&gt;&lt;br&gt;VLEN = 128bits&lt;br&gt;LMUL = 8&lt;br&gt;SEW = 32" style="text;strokeColor=none;align=left;fillColor=none;html=1;verticalAlign=middle;whiteSpace=wrap;rounded=0;" parent="1" vertex="1">
          <mxGeometry x="159" y="106" width="100" height="70" as="geometry" />
        </mxCell>
        <mxCell id="tb1awdMNRKqUdHzma3g3-6" value="&lt;font style=&quot;font-size: 16px;&quot;&gt;a2&lt;/font&gt;" style="rounded=0;whiteSpace=wrap;html=1;fillColor=#ffe6cc;strokeColor=#d79b00;" parent="1" vertex="1">
          <mxGeometry x="1032" y="372" width="30" height="30" as="geometry" />
        </mxCell>
        <mxCell id="tb1awdMNRKqUdHzma3g3-7" value="&lt;font style=&quot;font-size: 16px;&quot;&gt;a0&lt;/font&gt;" style="rounded=0;whiteSpace=wrap;html=1;fillColor=#ffe6cc;strokeColor=#d79b00;" parent="1" vertex="1">
          <mxGeometry x="1092" y="372" width="30" height="30" as="geometry" />
        </mxCell>
        <mxCell id="tb1awdMNRKqUdHzma3g3-8" value="&lt;font style=&quot;font-size: 16px;&quot;&gt;a4&lt;/font&gt;" style="rounded=0;whiteSpace=wrap;html=1;fillColor=#ffe6cc;strokeColor=#d79b00;" parent="1" vertex="1">
          <mxGeometry x="972" y="372" width="30" height="30" as="geometry" />
        </mxCell>
        <mxCell id="tb1awdMNRKqUdHzma3g3-9" value="&lt;font style=&quot;font-size: 16px;&quot;&gt;a11&lt;/font&gt;" style="rounded=0;whiteSpace=wrap;html=1;fillColor=#ffe6cc;strokeColor=#d79b00;" parent="1" vertex="1">
          <mxGeometry x="762" y="372" width="30" height="30" as="geometry" />
        </mxCell>
        <mxCell id="tb1awdMNRKqUdHzma3g3-10" value="&lt;span style=&quot;font-size: 16px;&quot;&gt;a10&lt;/span&gt;" style="rounded=0;whiteSpace=wrap;html=1;fillColor=#d5e8d4;strokeColor=#82b366;" parent="1" vertex="1">
          <mxGeometry x="792" y="372" width="30" height="30" as="geometry" />
        </mxCell>
        <mxCell id="tb1awdMNRKqUdHzma3g3-11" value="&lt;font style=&quot;font-size: 16px;&quot;&gt;a9&lt;/font&gt;" style="rounded=0;whiteSpace=wrap;html=1;fillColor=#ffe6cc;strokeColor=#d79b00;" parent="1" vertex="1">
          <mxGeometry x="822" y="372" width="30" height="30" as="geometry" />
        </mxCell>
        <mxCell id="tb1awdMNRKqUdHzma3g3-12" value="&lt;font style=&quot;font-size: 16px;&quot;&gt;a8&lt;/font&gt;" style="rounded=0;whiteSpace=wrap;html=1;fillColor=#d5e8d4;strokeColor=#82b366;" parent="1" vertex="1">
          <mxGeometry x="852" y="372" width="30" height="30" as="geometry" />
        </mxCell>
        <mxCell id="tb1awdMNRKqUdHzma3g3-13" value="&lt;font style=&quot;font-size: 16px;&quot;&gt;a15&lt;/font&gt;" style="rounded=0;whiteSpace=wrap;html=1;fillColor=#ffe6cc;strokeColor=#d79b00;" parent="1" vertex="1">
          <mxGeometry x="642" y="372" width="30" height="30" as="geometry" />
        </mxCell>
        <mxCell id="tb1awdMNRKqUdHzma3g3-14" value="&lt;font style=&quot;font-size: 16px;&quot;&gt;a14&lt;/font&gt;" style="rounded=0;whiteSpace=wrap;html=1;fillColor=#ffe6cc;strokeColor=#d79b00;" parent="1" vertex="1">
          <mxGeometry x="672" y="372" width="30" height="30" as="geometry" />
        </mxCell>
        <mxCell id="tb1awdMNRKqUdHzma3g3-15" value="&lt;font style=&quot;font-size: 16px;&quot;&gt;a13&lt;/font&gt;" style="rounded=0;whiteSpace=wrap;html=1;fillColor=#ffe6cc;strokeColor=#d79b00;" parent="1" vertex="1">
          <mxGeometry x="702" y="372" width="30" height="30" as="geometry" />
        </mxCell>
        <mxCell id="tb1awdMNRKqUdHzma3g3-16" value="&lt;font style=&quot;font-size: 16px;&quot;&gt;a12&lt;/font&gt;" style="rounded=0;whiteSpace=wrap;html=1;fillColor=#ffe6cc;strokeColor=#d79b00;" parent="1" vertex="1">
          <mxGeometry x="732" y="372" width="30" height="30" as="geometry" />
        </mxCell>
        <mxCell id="tb1awdMNRKqUdHzma3g3-17" value="&lt;font style=&quot;font-size: 16px;&quot;&gt;a19&lt;/font&gt;" style="rounded=0;whiteSpace=wrap;html=1;fillColor=#ffe6cc;strokeColor=#d79b00;" parent="1" vertex="1">
          <mxGeometry x="522" y="372" width="30" height="30" as="geometry" />
        </mxCell>
        <mxCell id="tb1awdMNRKqUdHzma3g3-18" value="&lt;font style=&quot;font-size: 16px;&quot;&gt;a18&lt;/font&gt;" style="rounded=0;whiteSpace=wrap;html=1;fillColor=#ffe6cc;strokeColor=#d79b00;" parent="1" vertex="1">
          <mxGeometry x="552" y="372" width="30" height="30" as="geometry" />
        </mxCell>
        <mxCell id="tb1awdMNRKqUdHzma3g3-19" value="&lt;font style=&quot;font-size: 16px;&quot;&gt;a17&lt;/font&gt;" style="rounded=0;whiteSpace=wrap;html=1;fillColor=#ffe6cc;strokeColor=#d79b00;" parent="1" vertex="1">
          <mxGeometry x="582" y="372" width="30" height="30" as="geometry" />
        </mxCell>
        <mxCell id="tb1awdMNRKqUdHzma3g3-20" value="&lt;font style=&quot;font-size: 16px;&quot;&gt;a16&lt;/font&gt;" style="rounded=0;whiteSpace=wrap;html=1;fillColor=#ffe6cc;strokeColor=#d79b00;" parent="1" vertex="1">
          <mxGeometry x="612" y="372" width="30" height="30" as="geometry" />
        </mxCell>
        <mxCell id="tb1awdMNRKqUdHzma3g3-21" value="&lt;font style=&quot;font-size: 16px;&quot;&gt;a23&lt;/font&gt;" style="rounded=0;whiteSpace=wrap;html=1;fillColor=#ffe6cc;strokeColor=#d79b00;" parent="1" vertex="1">
          <mxGeometry x="402" y="372" width="30" height="30" as="geometry" />
        </mxCell>
        <mxCell id="tb1awdMNRKqUdHzma3g3-22" value="&lt;font style=&quot;font-size: 16px;&quot;&gt;a22&lt;/font&gt;" style="rounded=0;whiteSpace=wrap;html=1;fillColor=#ffe6cc;strokeColor=#d79b00;" parent="1" vertex="1">
          <mxGeometry x="432" y="372" width="30" height="30" as="geometry" />
        </mxCell>
        <mxCell id="tb1awdMNRKqUdHzma3g3-23" value="&lt;font style=&quot;font-size: 16px;&quot;&gt;a21&lt;/font&gt;" style="rounded=0;whiteSpace=wrap;html=1;fillColor=#ffe6cc;strokeColor=#d79b00;" parent="1" vertex="1">
          <mxGeometry x="462" y="372" width="30" height="30" as="geometry" />
        </mxCell>
        <mxCell id="tb1awdMNRKqUdHzma3g3-24" value="&lt;font style=&quot;font-size: 16px;&quot;&gt;a20&lt;/font&gt;" style="rounded=0;whiteSpace=wrap;html=1;fillColor=#ffe6cc;strokeColor=#d79b00;" parent="1" vertex="1">
          <mxGeometry x="492" y="372" width="30" height="30" as="geometry" />
        </mxCell>
        <mxCell id="tb1awdMNRKqUdHzma3g3-25" value="&lt;font style=&quot;font-size: 16px;&quot;&gt;a27&lt;/font&gt;" style="rounded=0;whiteSpace=wrap;html=1;fillColor=#ffe6cc;strokeColor=#d79b00;" parent="1" vertex="1">
          <mxGeometry x="281" y="372" width="30" height="30" as="geometry" />
        </mxCell>
        <mxCell id="tb1awdMNRKqUdHzma3g3-26" value="&lt;font style=&quot;font-size: 16px;&quot;&gt;a26&lt;/font&gt;" style="rounded=0;whiteSpace=wrap;html=1;fillColor=#ffe6cc;strokeColor=#d79b00;" parent="1" vertex="1">
          <mxGeometry x="311" y="372" width="30" height="30" as="geometry" />
        </mxCell>
        <mxCell id="tb1awdMNRKqUdHzma3g3-27" value="&lt;font style=&quot;font-size: 16px;&quot;&gt;a25&lt;/font&gt;" style="rounded=0;whiteSpace=wrap;html=1;fillColor=#ffe6cc;strokeColor=#d79b00;" parent="1" vertex="1">
          <mxGeometry x="342" y="372" width="30" height="30" as="geometry" />
        </mxCell>
        <mxCell id="tb1awdMNRKqUdHzma3g3-28" value="&lt;font style=&quot;font-size: 16px;&quot;&gt;a24&lt;/font&gt;" style="rounded=0;whiteSpace=wrap;html=1;fillColor=#ffe6cc;strokeColor=#d79b00;" parent="1" vertex="1">
          <mxGeometry x="372" y="372" width="30" height="30" as="geometry" />
        </mxCell>
        <mxCell id="tb1awdMNRKqUdHzma3g3-29" value="&lt;font style=&quot;font-size: 16px;&quot;&gt;a28&lt;/font&gt;" style="rounded=0;whiteSpace=wrap;html=1;fillColor=#ffe6cc;strokeColor=#d79b00;" parent="1" vertex="1">
          <mxGeometry x="251" y="372" width="30" height="30" as="geometry" />
        </mxCell>
        <mxCell id="tb1awdMNRKqUdHzma3g3-30" value="&lt;font style=&quot;font-size: 16px;&quot;&gt;a31&lt;/font&gt;" style="rounded=0;whiteSpace=wrap;html=1;fillColor=#ffe6cc;strokeColor=#d79b00;" parent="1" vertex="1">
          <mxGeometry x="161" y="372" width="30" height="30" as="geometry" />
        </mxCell>
        <mxCell id="tb1awdMNRKqUdHzma3g3-31" value="&lt;font style=&quot;font-size: 16px;&quot;&gt;a30&lt;/font&gt;" style="rounded=0;whiteSpace=wrap;html=1;fillColor=#ffe6cc;strokeColor=#d79b00;" parent="1" vertex="1">
          <mxGeometry x="191" y="372" width="30" height="30" as="geometry" />
        </mxCell>
        <mxCell id="tb1awdMNRKqUdHzma3g3-32" value="&lt;font style=&quot;font-size: 16px;&quot;&gt;a29&lt;/font&gt;" style="rounded=0;whiteSpace=wrap;html=1;fillColor=#ffe6cc;strokeColor=#d79b00;" parent="1" vertex="1">
          <mxGeometry x="221" y="372" width="30" height="30" as="geometry" />
        </mxCell>
        <mxCell id="tb1awdMNRKqUdHzma3g3-35" value="&lt;font style=&quot;font-size: 16px;&quot;&gt;a1&lt;/font&gt;" style="rounded=0;whiteSpace=wrap;html=1;fillColor=#ffe6cc;strokeColor=#d79b00;" parent="1" vertex="1">
          <mxGeometry x="1062" y="372" width="30" height="30" as="geometry" />
        </mxCell>
        <mxCell id="tb1awdMNRKqUdHzma3g3-46" value="&lt;font style=&quot;font-size: 13px;&quot;&gt;unmasked elements&lt;/font&gt;" style="text;strokeColor=none;align=center;fillColor=none;html=1;verticalAlign=middle;whiteSpace=wrap;rounded=0;" parent="1" vertex="1">
          <mxGeometry x="777" y="320" width="140" height="30" as="geometry" />
        </mxCell>
        <mxCell id="tb1awdMNRKqUdHzma3g3-47" value="" style="endArrow=classic;html=1;rounded=0;" parent="1" source="tb1awdMNRKqUdHzma3g3-46" target="tb1awdMNRKqUdHzma3g3-12" edge="1">
          <mxGeometry width="50" height="50" relative="1" as="geometry">
            <mxPoint x="842" y="530" as="sourcePoint" />
            <mxPoint x="865" y="510" as="targetPoint" />
          </mxGeometry>
        </mxCell>
        <mxCell id="tb1awdMNRKqUdHzma3g3-49" value="&lt;font color=&quot;#ff0000&quot; style=&quot;font-size: 16px;&quot;&gt;对应的元素：&lt;/font&gt;" style="text;strokeColor=none;align=left;fillColor=none;html=1;verticalAlign=middle;whiteSpace=wrap;rounded=0;" parent="1" vertex="1">
          <mxGeometry x="50" y="372" width="111" height="30" as="geometry" />
        </mxCell>
        <mxCell id="tb1awdMNRKqUdHzma3g3-50" value="&lt;font style=&quot;font-size: 16px;&quot;&gt;1&lt;/font&gt;" style="rounded=0;whiteSpace=wrap;html=1;fillColor=#ffe6cc;strokeColor=#d79b00;" parent="1" vertex="1">
          <mxGeometry x="1002" y="224" width="30" height="30" as="geometry" />
        </mxCell>
        <mxCell id="tb1awdMNRKqUdHzma3g3-51" value="&lt;font style=&quot;font-size: 16px;&quot;&gt;1&lt;/font&gt;" style="rounded=0;whiteSpace=wrap;html=1;fillColor=#ffe6cc;strokeColor=#d79b00;" parent="1" vertex="1">
          <mxGeometry x="882" y="224" width="30" height="30" as="geometry" />
        </mxCell>
        <mxCell id="tb1awdMNRKqUdHzma3g3-52" value="&lt;font style=&quot;font-size: 16px;&quot;&gt;1&lt;/font&gt;" style="rounded=0;whiteSpace=wrap;html=1;fillColor=#ffe6cc;strokeColor=#d79b00;" parent="1" vertex="1">
          <mxGeometry x="910" y="224" width="32" height="30" as="geometry" />
        </mxCell>
        <mxCell id="tb1awdMNRKqUdHzma3g3-53" value="&lt;font style=&quot;font-size: 16px;&quot;&gt;1&lt;/font&gt;" style="rounded=0;whiteSpace=wrap;html=1;fillColor=#ffe6cc;strokeColor=#d79b00;" parent="1" vertex="1">
          <mxGeometry x="942" y="224" width="30" height="30" as="geometry" />
        </mxCell>
        <mxCell id="tb1awdMNRKqUdHzma3g3-54" value="&lt;font style=&quot;font-size: 16px;&quot;&gt;1&lt;/font&gt;" style="rounded=0;whiteSpace=wrap;html=1;fillColor=#ffe6cc;strokeColor=#d79b00;" parent="1" vertex="1">
          <mxGeometry x="1032" y="224" width="30" height="30" as="geometry" />
        </mxCell>
        <mxCell id="tb1awdMNRKqUdHzma3g3-55" value="&lt;font style=&quot;font-size: 16px;&quot;&gt;1&lt;/font&gt;" style="rounded=0;whiteSpace=wrap;html=1;fillColor=#ffe6cc;strokeColor=#d79b00;" parent="1" vertex="1">
          <mxGeometry x="1092" y="224" width="30" height="30" as="geometry" />
        </mxCell>
        <mxCell id="tb1awdMNRKqUdHzma3g3-56" value="&lt;font style=&quot;font-size: 16px;&quot;&gt;1&lt;/font&gt;" style="rounded=0;whiteSpace=wrap;html=1;fillColor=#ffe6cc;strokeColor=#d79b00;" parent="1" vertex="1">
          <mxGeometry x="972" y="224" width="30" height="30" as="geometry" />
        </mxCell>
        <mxCell id="tb1awdMNRKqUdHzma3g3-57" value="&lt;font style=&quot;font-size: 16px;&quot;&gt;1&lt;/font&gt;" style="rounded=0;whiteSpace=wrap;html=1;fillColor=#ffe6cc;strokeColor=#d79b00;" parent="1" vertex="1">
          <mxGeometry x="762" y="224" width="30" height="30" as="geometry" />
        </mxCell>
        <mxCell id="tb1awdMNRKqUdHzma3g3-58" value="&lt;span style=&quot;font-size: 16px;&quot;&gt;0&lt;/span&gt;" style="rounded=0;whiteSpace=wrap;html=1;fillColor=#d5e8d4;strokeColor=#82b366;" parent="1" vertex="1">
          <mxGeometry x="792" y="224" width="30" height="30" as="geometry" />
        </mxCell>
        <mxCell id="tb1awdMNRKqUdHzma3g3-59" value="&lt;font style=&quot;font-size: 16px;&quot;&gt;1&lt;/font&gt;" style="rounded=0;whiteSpace=wrap;html=1;fillColor=#ffe6cc;strokeColor=#d79b00;" parent="1" vertex="1">
          <mxGeometry x="822" y="224" width="30" height="30" as="geometry" />
        </mxCell>
        <mxCell id="tb1awdMNRKqUdHzma3g3-60" value="&lt;font style=&quot;font-size: 16px;&quot;&gt;0&lt;/font&gt;" style="rounded=0;whiteSpace=wrap;html=1;fillColor=#d5e8d4;strokeColor=#82b366;" parent="1" vertex="1">
          <mxGeometry x="852" y="224" width="30" height="30" as="geometry" />
        </mxCell>
        <mxCell id="tb1awdMNRKqUdHzma3g3-61" value="&lt;font style=&quot;font-size: 16px;&quot;&gt;1&lt;/font&gt;" style="rounded=0;whiteSpace=wrap;html=1;fillColor=#ffe6cc;strokeColor=#d79b00;" parent="1" vertex="1">
          <mxGeometry x="642" y="224" width="30" height="30" as="geometry" />
        </mxCell>
        <mxCell id="tb1awdMNRKqUdHzma3g3-62" value="&lt;font style=&quot;font-size: 16px;&quot;&gt;1&lt;/font&gt;" style="rounded=0;whiteSpace=wrap;html=1;fillColor=#ffe6cc;strokeColor=#d79b00;" parent="1" vertex="1">
          <mxGeometry x="672" y="224" width="30" height="30" as="geometry" />
        </mxCell>
        <mxCell id="tb1awdMNRKqUdHzma3g3-63" value="&lt;font style=&quot;font-size: 16px;&quot;&gt;1&lt;/font&gt;" style="rounded=0;whiteSpace=wrap;html=1;fillColor=#ffe6cc;strokeColor=#d79b00;" parent="1" vertex="1">
          <mxGeometry x="702" y="224" width="30" height="30" as="geometry" />
        </mxCell>
        <mxCell id="tb1awdMNRKqUdHzma3g3-64" value="&lt;font style=&quot;font-size: 16px;&quot;&gt;1&lt;/font&gt;" style="rounded=0;whiteSpace=wrap;html=1;fillColor=#ffe6cc;strokeColor=#d79b00;" parent="1" vertex="1">
          <mxGeometry x="732" y="224" width="30" height="30" as="geometry" />
        </mxCell>
        <mxCell id="tb1awdMNRKqUdHzma3g3-65" value="&lt;font style=&quot;font-size: 16px;&quot;&gt;1&lt;/font&gt;" style="rounded=0;whiteSpace=wrap;html=1;fillColor=#ffe6cc;strokeColor=#d79b00;" parent="1" vertex="1">
          <mxGeometry x="522" y="224" width="30" height="30" as="geometry" />
        </mxCell>
        <mxCell id="tb1awdMNRKqUdHzma3g3-66" value="&lt;font style=&quot;font-size: 16px;&quot;&gt;1&lt;/font&gt;" style="rounded=0;whiteSpace=wrap;html=1;fillColor=#ffe6cc;strokeColor=#d79b00;" parent="1" vertex="1">
          <mxGeometry x="552" y="224" width="30" height="30" as="geometry" />
        </mxCell>
        <mxCell id="tb1awdMNRKqUdHzma3g3-67" value="&lt;font style=&quot;font-size: 16px;&quot;&gt;1&lt;/font&gt;" style="rounded=0;whiteSpace=wrap;html=1;fillColor=#ffe6cc;strokeColor=#d79b00;" parent="1" vertex="1">
          <mxGeometry x="582" y="224" width="30" height="30" as="geometry" />
        </mxCell>
        <mxCell id="tb1awdMNRKqUdHzma3g3-68" value="&lt;font style=&quot;font-size: 16px;&quot;&gt;1&lt;/font&gt;" style="rounded=0;whiteSpace=wrap;html=1;fillColor=#ffe6cc;strokeColor=#d79b00;" parent="1" vertex="1">
          <mxGeometry x="612" y="224" width="30" height="30" as="geometry" />
        </mxCell>
        <mxCell id="tb1awdMNRKqUdHzma3g3-69" value="&lt;font style=&quot;font-size: 16px;&quot;&gt;1&lt;/font&gt;" style="rounded=0;whiteSpace=wrap;html=1;fillColor=#ffe6cc;strokeColor=#d79b00;" parent="1" vertex="1">
          <mxGeometry x="402" y="224" width="30" height="30" as="geometry" />
        </mxCell>
        <mxCell id="tb1awdMNRKqUdHzma3g3-70" value="&lt;font style=&quot;font-size: 16px;&quot;&gt;1&lt;/font&gt;" style="rounded=0;whiteSpace=wrap;html=1;fillColor=#ffe6cc;strokeColor=#d79b00;" parent="1" vertex="1">
          <mxGeometry x="432" y="224" width="30" height="30" as="geometry" />
        </mxCell>
        <mxCell id="tb1awdMNRKqUdHzma3g3-71" value="&lt;font style=&quot;font-size: 16px;&quot;&gt;1&lt;/font&gt;" style="rounded=0;whiteSpace=wrap;html=1;fillColor=#ffe6cc;strokeColor=#d79b00;" parent="1" vertex="1">
          <mxGeometry x="462" y="224" width="30" height="30" as="geometry" />
        </mxCell>
        <mxCell id="tb1awdMNRKqUdHzma3g3-72" value="&lt;font style=&quot;font-size: 16px;&quot;&gt;1&lt;/font&gt;" style="rounded=0;whiteSpace=wrap;html=1;fillColor=#ffe6cc;strokeColor=#d79b00;" parent="1" vertex="1">
          <mxGeometry x="492" y="224" width="30" height="30" as="geometry" />
        </mxCell>
        <mxCell id="tb1awdMNRKqUdHzma3g3-73" value="&lt;font style=&quot;font-size: 16px;&quot;&gt;1&lt;/font&gt;" style="rounded=0;whiteSpace=wrap;html=1;fillColor=#ffe6cc;strokeColor=#d79b00;" parent="1" vertex="1">
          <mxGeometry x="281" y="224" width="30" height="30" as="geometry" />
        </mxCell>
        <mxCell id="tb1awdMNRKqUdHzma3g3-74" value="&lt;font style=&quot;font-size: 16px;&quot;&gt;1&lt;/font&gt;" style="rounded=0;whiteSpace=wrap;html=1;fillColor=#ffe6cc;strokeColor=#d79b00;" parent="1" vertex="1">
          <mxGeometry x="311" y="224" width="30" height="30" as="geometry" />
        </mxCell>
        <mxCell id="tb1awdMNRKqUdHzma3g3-75" value="&lt;font style=&quot;font-size: 16px;&quot;&gt;1&lt;/font&gt;" style="rounded=0;whiteSpace=wrap;html=1;fillColor=#ffe6cc;strokeColor=#d79b00;" parent="1" vertex="1">
          <mxGeometry x="342" y="224" width="30" height="30" as="geometry" />
        </mxCell>
        <mxCell id="tb1awdMNRKqUdHzma3g3-76" value="&lt;font style=&quot;font-size: 16px;&quot;&gt;1&lt;/font&gt;" style="rounded=0;whiteSpace=wrap;html=1;fillColor=#ffe6cc;strokeColor=#d79b00;" parent="1" vertex="1">
          <mxGeometry x="372" y="224" width="30" height="30" as="geometry" />
        </mxCell>
        <mxCell id="tb1awdMNRKqUdHzma3g3-77" value="&lt;font style=&quot;font-size: 16px;&quot;&gt;1&lt;/font&gt;" style="rounded=0;whiteSpace=wrap;html=1;fillColor=#ffe6cc;strokeColor=#d79b00;" parent="1" vertex="1">
          <mxGeometry x="251" y="224" width="30" height="30" as="geometry" />
        </mxCell>
        <mxCell id="tb1awdMNRKqUdHzma3g3-78" value="&lt;font style=&quot;font-size: 16px;&quot;&gt;1&lt;/font&gt;" style="rounded=0;whiteSpace=wrap;html=1;fillColor=#ffe6cc;strokeColor=#d79b00;" parent="1" vertex="1">
          <mxGeometry x="161" y="224" width="29" height="30" as="geometry" />
        </mxCell>
        <mxCell id="tb1awdMNRKqUdHzma3g3-79" value="&lt;font style=&quot;font-size: 16px;&quot;&gt;1&lt;/font&gt;" style="rounded=0;whiteSpace=wrap;html=1;fillColor=#ffe6cc;strokeColor=#d79b00;" parent="1" vertex="1">
          <mxGeometry x="191" y="224" width="30" height="30" as="geometry" />
        </mxCell>
        <mxCell id="tb1awdMNRKqUdHzma3g3-80" value="&lt;font style=&quot;font-size: 16px;&quot;&gt;1&lt;/font&gt;" style="rounded=0;whiteSpace=wrap;html=1;fillColor=#ffe6cc;strokeColor=#d79b00;" parent="1" vertex="1">
          <mxGeometry x="221" y="224" width="30" height="30" as="geometry" />
        </mxCell>
        <mxCell id="tb1awdMNRKqUdHzma3g3-81" value="&lt;font style=&quot;font-size: 16px;&quot;&gt;1&lt;/font&gt;" style="rounded=0;whiteSpace=wrap;html=1;fillColor=#ffe6cc;strokeColor=#d79b00;" parent="1" vertex="1">
          <mxGeometry x="1060" y="224" width="32" height="30" as="geometry" />
        </mxCell>
        <mxCell id="KIVH39sPGkb2YTfTOvuG-1" value="" style="endArrow=classic;html=1;rounded=0;entryX=0.5;entryY=0;entryDx=0;entryDy=0;" parent="1" target="tb1awdMNRKqUdHzma3g3-10" edge="1">
          <mxGeometry width="50" height="50" relative="1" as="geometry">
            <mxPoint x="820" y="350" as="sourcePoint" />
            <mxPoint x="870" y="300" as="targetPoint" />
          </mxGeometry>
        </mxCell>
        <mxCell id="KIVH39sPGkb2YTfTOvuG-4" value="&lt;font color=&quot;#ff0000&quot; style=&quot;font-size: 16px;&quot;&gt;mask 值:&lt;br&gt;(0xFFFFFAFF)&lt;/font&gt;" style="text;strokeColor=none;align=left;fillColor=none;html=1;verticalAlign=middle;whiteSpace=wrap;rounded=0;" parent="1" vertex="1">
          <mxGeometry x="50" y="224" width="111" height="30" as="geometry" />
        </mxCell>
        <mxCell id="KIVH39sPGkb2YTfTOvuG-5" value="&lt;font color=&quot;#ff0000&quot; style=&quot;font-size: 16px;&quot;&gt;寄存器排布：&lt;/font&gt;" style="text;strokeColor=none;align=left;fillColor=none;html=1;verticalAlign=middle;whiteSpace=wrap;rounded=0;" parent="1" vertex="1">
          <mxGeometry x="50" y="461" width="111" height="30" as="geometry" />
        </mxCell>
        <mxCell id="A7nuUG-BtTZru_z4rGza-1" value="" style="rounded=0;whiteSpace=wrap;html=1;fillColor=#d5e8d4;strokeColor=#82b366;" parent="1" vertex="1">
          <mxGeometry x="322" y="330" width="19" height="20" as="geometry" />
        </mxCell>
        <mxCell id="A7nuUG-BtTZru_z4rGza-2" value="" style="rounded=0;whiteSpace=wrap;html=1;fillColor=#ffe6cc;strokeColor=#d79b00;" parent="1" vertex="1">
          <mxGeometry x="161" y="330.16" width="19" height="20" as="geometry" />
        </mxCell>
        <mxCell id="A7nuUG-BtTZru_z4rGza-3" value="&lt;span style=&quot;font-size: 16px;&quot;&gt;表示maked元素&lt;/span&gt;" style="text;strokeColor=none;align=left;fillColor=none;html=1;verticalAlign=middle;whiteSpace=wrap;rounded=0;" parent="1" vertex="1">
          <mxGeometry x="190" y="325" width="130" height="30" as="geometry" />
        </mxCell>
        <mxCell id="A7nuUG-BtTZru_z4rGza-5" value="&lt;span style=&quot;font-size: 16px;&quot;&gt;表示unmaked元素&lt;/span&gt;" style="text;strokeColor=none;align=left;fillColor=none;html=1;verticalAlign=middle;whiteSpace=wrap;rounded=0;" parent="1" vertex="1">
          <mxGeometry x="352" y="325.16" width="148" height="30" as="geometry" />
        </mxCell>
      </root>
    </mxGraphModel>
  </diagram>
</mxfile>
